<svg width="14.000000" height="14.000000" viewBox="0 0 14 14" fill="none" xmlns="http://www.w3.org/2000/svg" xmlns:xlink="http://www.w3.org/1999/xlink">
	<desc>
			Created with Pixso.
	</desc>
	<defs>
		<clipPath id="clip1_222">
			<rect id="ic:sharp-log-in" width="14.000000" height="14.000000" fill="white" fill-opacity="0"/>
		</clipPath>
	</defs>
	<rect id="ic:sharp-log-in" width="14.000000" height="14.000000" fill="#FFFFFF" fill-opacity="0"/>
	<g clip-path="url(#clip1_222)">
		<path id="Vector" d="M5.25 1.16L10.5 1.16C11.14 1.16 11.66 1.69 11.66 2.33L11.66 11.66C11.66 12.3 11.14 12.83 10.5 12.83L5.25 12.83C4.6 12.83 4.08 12.3 4.08 11.66L4.08 10.5L5.25 10.5L5.25 11.66L10.5 11.66L10.5 2.33L5.25 2.33L5.25 3.5L4.08 3.5L4.08 2.33C4.08 1.69 4.6 1.16 5.25 1.16Z" fill="#969696" fill-opacity="1.000000" fill-rule="nonzero"/>
		<path id="Vector" d="M5.88 9.09L6.7 9.91L9.62 7L6.7 4.08L5.88 4.9L7.39 6.41L1.75 6.41L1.75 7.58L7.39 7.58L5.88 9.09Z" fill="#969696" fill-opacity="1.000000" fill-rule="nonzero"/>
	</g>
</svg>
