<svg width="22.000000" height="22.000000" viewBox="0 0 22 22" fill="none" xmlns="http://www.w3.org/2000/svg" xmlns:xlink="http://www.w3.org/1999/xlink">
	<desc>
			Created with Pixso.
	</desc>
	<defs>
		<clipPath id="clip1_235">
			<rect id="bx:bx-cart" width="22.000000" height="22.000000" fill="white" fill-opacity="0"/>
		</clipPath>
	</defs>
	<rect id="bx:bx-cart" width="22.000000" height="22.000000" fill="#FFFFFF" fill-opacity="0"/>
	<g clip-path="url(#clip1_235)">
		<path id="Vector" d="M20 6.81C19.91 6.68 19.8 6.59 19.67 6.52C19.54 6.45 19.39 6.41 19.25 6.41L6.72 6.41L5.66 3.87C5.52 3.54 5.29 3.25 4.98 3.05C4.68 2.85 4.33 2.74 3.97 2.75L1.83 2.75L1.83 4.58L3.97 4.58L8.32 15.01C8.39 15.18 8.5 15.32 8.65 15.42C8.8 15.52 8.98 15.58 9.16 15.58L16.5 15.58C16.88 15.58 17.22 15.34 17.35 14.98L20.1 7.65C20.16 7.51 20.17 7.36 20.16 7.22C20.14 7.07 20.08 6.93 20 6.81ZM15.86 13.75L9.77 13.75L7.48 8.25L17.92 8.25L15.86 13.75Z" fill="#FFFFFF" fill-opacity="1.000000" fill-rule="nonzero"/>
		<path id="Vector" d="M11 17.87C11 18.63 10.38 19.25 9.62 19.25C8.86 19.25 8.25 18.63 8.25 17.87C8.25 17.11 8.86 16.5 9.62 16.5C10.38 16.5 11 17.11 11 17.87Z" fill="#FFFFFF" fill-opacity="1.000000" fill-rule="evenodd"/>
		<path id="Vector" d="M17.41 17.87C17.41 18.63 16.8 19.25 16.04 19.25C15.28 19.25 14.66 18.63 14.66 17.87C14.66 17.11 15.28 16.5 16.04 16.5C16.8 16.5 17.41 17.11 17.41 17.87Z" fill="#FFFFFF" fill-opacity="1.000000" fill-rule="evenodd"/>
	</g>
</svg>
