<svg width="13.000000" height="13.000000" viewBox="0 0 13 13" fill="none" xmlns="http://www.w3.org/2000/svg" xmlns:xlink="http://www.w3.org/1999/xlink">
	<desc>
			Created with Pixso.
	</desc>
	<defs/>
	<path id="Vector" d="M9.6 12.66C6.87 12.66 4.26 11.58 2.34 9.65C0.41 7.73 -0.67 5.12 -0.67 2.39C-0.67 1.58 -0.35 0.8 0.23 0.23C0.8 -0.35 1.58 -0.67 2.4 -0.67C2.57 -0.67 2.74 -0.66 2.91 -0.63C3.07 -0.6 3.23 -0.56 3.39 -0.5C3.5 -0.47 3.6 -0.4 3.67 -0.31C3.75 -0.22 3.8 -0.12 3.82 0L4.74 4C4.76 4.1 4.76 4.22 4.73 4.32C4.7 4.43 4.64 4.53 4.56 4.61C4.48 4.7 4.47 4.71 3.65 5.13C4.31 6.58 5.46 7.73 6.9 8.39C7.33 7.57 7.34 7.56 7.43 7.47C7.51 7.4 7.61 7.34 7.71 7.31C7.82 7.28 7.93 7.28 8.04 7.3L12.04 8.21C12.15 8.24 12.25 8.29 12.34 8.37C12.42 8.45 12.49 8.54 12.52 8.65C12.58 8.81 12.62 8.97 12.65 9.13C12.68 9.3 12.69 9.47 12.69 9.64C12.68 10.45 12.34 11.22 11.76 11.79C11.18 12.36 10.41 12.67 9.6 12.66ZM2.4 0.66C1.94 0.66 1.5 0.85 1.17 1.17C0.85 1.5 0.66 1.94 0.66 2.39C0.66 4.76 1.61 7.04 3.28 8.71C4.96 10.38 7.23 11.33 9.6 11.33C10.05 11.33 10.49 11.14 10.82 10.82C11.14 10.49 11.33 10.05 11.33 9.6L11.33 9.37L8.24 8.66L8.04 9.03C7.74 9.61 7.52 10.03 6.96 9.8C5.86 9.41 4.85 8.77 4.03 7.94C3.2 7.11 2.57 6.1 2.18 5C1.94 4.47 2.39 4.23 2.96 3.93L3.33 3.76L2.62 0.66L2.4 0.66Z" fill="#969696" fill-opacity="1.000000" fill-rule="nonzero"/>
</svg>
