<svg width="17.000000" height="17.000000" viewBox="0 0 17 17" fill="none" xmlns="http://www.w3.org/2000/svg" xmlns:xlink="http://www.w3.org/1999/xlink">
	<desc>
			Created with Pixso.
	</desc>
	<defs/>
	<path id="Vector" d="M16.24 14.41L11.52 9.69C12.39 8.36 12.74 6.76 12.5 5.18C12.26 3.61 11.45 2.19 10.21 1.19C8.98 0.18 7.42 -0.33 5.83 -0.25C4.25 -0.17 2.75 0.5 1.62 1.62C0.5 2.75 -0.17 4.25 -0.25 5.83C-0.33 7.42 0.18 8.98 1.19 10.21C2.19 11.45 3.61 12.26 5.18 12.5C6.76 12.74 8.36 12.39 9.69 11.52L14.41 16.25L16.24 14.41ZM1.58 6.16C1.58 3.63 3.63 1.58 6.16 1.58C8.69 1.58 10.74 3.63 10.74 6.16C10.74 8.69 8.69 10.75 6.16 10.75C3.63 10.75 1.58 8.69 1.58 6.16Z" fill="#FFFFFF" fill-opacity="1.000000" fill-rule="nonzero"/>
</svg>
